<svg width="32" height="32" viewBox="0 0 32 32" fill="none" xmlns="http://www.w3.org/2000/svg">
<g clip-path="url(#clip0_34906_80171)">
<path d="M16.8438 1C18.1182 1 19.1513 2.03315 19.1514 3.30762C19.1514 3.62978 19.0851 3.93631 18.9658 4.21484L24.0596 6.03418C24.4538 5.32674 25.2088 4.84768 26.0762 4.84766C27.3504 4.84789 28.3837 5.88095 28.3838 7.15527C28.3838 8.03913 27.8859 8.80574 27.1562 9.19336L27.7803 17.2012C28.7883 17.609 29.5 18.5958 29.5 19.75C29.5 21.2688 28.2688 22.5 26.75 22.5C26.0025 22.5 25.3258 22.2007 24.8301 21.7168C24.8476 21.8176 24.8147 21.9246 24.7314 21.9961L16.8428 28.7568C16.8083 30.0012 15.7918 30.999 14.5391 30.999C13.2647 30.9988 12.2314 29.9658 12.2314 28.6914C12.2315 28.4682 12.2651 28.2529 12.3242 28.0488L7.56152 22.9229C7.12118 23.1661 6.61578 23.3066 6.07715 23.3066C4.37789 23.3066 3.00012 21.9287 3 20.2295C3 18.909 3.83276 17.7852 5.00098 17.3486L5 6.35352C4.29737 6.2112 3.76855 5.59029 3.76855 4.8457C3.76893 3.99648 4.45738 3.30782 5.30664 3.30762C5.90108 3.30774 6.41563 3.64606 6.67188 4.13965L14.541 3.4248C14.5391 3.38598 14.5361 3.34692 14.5361 3.30762C14.5362 2.03326 15.5694 1.00018 16.8438 1ZM14.5391 27.3838C13.8171 27.384 13.2317 27.9695 13.2314 28.6914C13.2314 29.4135 13.817 29.9988 14.5391 29.999C15.2613 29.999 15.8467 29.4136 15.8467 28.6914C15.8465 27.9694 15.2611 27.3838 14.5391 27.3838ZM20.3721 20.0117L16.3564 27.2725C16.5341 27.4996 16.67 27.7601 16.7529 28.0439L24.3418 21.54C24.4193 21.474 24.5206 21.4546 24.6123 21.4785C24.2484 21.029 24.0258 20.463 24.0049 19.8447L20.3721 20.0117ZM9.16797 20.5293C9.15817 20.5297 9.14827 20.5278 9.13867 20.5273C9.05971 21.3485 8.65762 22.074 8.06152 22.5781L12.5918 27.4561C12.7306 27.2377 12.9044 27.0441 13.1064 26.8838C13.1061 26.8829 13.1058 26.8818 13.1055 26.8809L10.6094 20.4619L9.16797 20.5293ZM15.9102 20.2178L15.2549 26.498C15.4928 26.5756 15.7123 26.6922 15.9092 26.8379L19.668 20.0439L15.9102 20.2178ZM11.2412 20.4336L13.6289 26.5713C13.9082 26.4512 14.2158 26.3838 14.5391 26.3838C14.5809 26.3838 14.6227 26.3874 14.6641 26.3896L15.3047 20.2461L11.2412 20.4336ZM8.48438 18.3174C8.84371 18.7693 9.08003 19.3229 9.13867 19.9297H9.13965L10.3789 19.8721L9.47949 17.5576L8.48438 18.3174ZM9.97559 17.1797L11.0117 19.8428L15.3672 19.6426L15.6455 16.9834C14.3791 16.8722 13.2829 16.1712 12.6318 15.1562L9.97559 17.1797ZM19.3154 15.2363C18.6399 16.2358 17.5255 16.913 16.248 16.9912L15.9736 19.6143L20.0088 19.4287L21.4863 16.7578L19.3262 15.2461C19.3222 15.2433 19.3192 15.2393 19.3154 15.2363ZM20.7129 19.3955L24.0479 19.2432C24.085 19.0438 24.1421 18.8516 24.2197 18.6699L21.9805 17.1035L20.7129 19.3955ZM26.5703 9.4082C26.4535 9.43372 26.3336 9.44896 26.2109 9.45605L22.2734 16.5752L24.5186 18.1465C25.0178 17.453 25.8302 17 26.75 17C26.8916 17 27.0302 17.0135 27.166 17.0342L26.5703 9.4082ZM5.60059 17.1885C5.7558 17.1644 5.91517 17.1523 6.07715 17.1523C6.83508 17.1524 7.52825 17.4274 8.06445 17.8818L9.25293 16.9756L5.59961 7.58105L5.60059 17.1885ZM6.18457 6.10742C6.05349 6.19884 5.90842 6.27105 5.75195 6.31836L9.74902 16.5977L12.3438 14.6221C12.1234 14.1262 12 13.5776 12 13C12 12.6694 12.0406 12.3483 12.1162 12.041L6.18457 6.10742ZM24.334 8.69629L19.8916 12.0781C19.9615 12.3742 20 12.6826 20 13C20 13.6169 19.8598 14.2009 19.6104 14.7227C19.6312 14.731 19.6517 14.7414 19.6709 14.7549L21.7783 16.2295L25.5557 9.40137C25.0797 9.2916 24.6615 9.03534 24.3486 8.68164C24.3435 8.68611 24.3395 8.69212 24.334 8.69629ZM16.4004 9.01953C17.8946 9.16803 19.1459 10.1395 19.6973 11.4736L23.9707 8.21875C23.9851 8.20785 24.0001 8.19838 24.0156 8.19043C23.8954 7.95173 23.814 7.69035 23.7832 7.41309L16.8662 6.66113L16.4004 9.01953ZM6.67188 5.55371C6.65035 5.59513 6.62761 5.63569 6.60254 5.6748L12.3301 11.4072C12.9196 10.0509 14.2385 9.08445 15.792 9.00488L16.2676 6.59668L6.67188 5.55371ZM26.0762 5.84766C25.354 5.84769 24.7686 6.43311 24.7686 7.15527C24.7686 7.87748 25.354 8.46286 26.0762 8.46289C26.7982 8.46266 27.3838 7.87735 27.3838 7.15527C27.3837 6.43323 26.7982 5.84789 26.0762 5.84766ZM18.6523 4.7373C18.2748 5.2142 17.7149 5.53972 17.0762 5.60352L16.9834 6.07129L23.7959 6.81152C23.807 6.7373 23.8219 6.66451 23.8398 6.59277L18.668 4.74512C18.6625 4.74314 18.6577 4.73956 18.6523 4.7373ZM6.83887 4.72754C6.84186 4.76659 6.84569 4.80589 6.8457 4.8457L6.83887 4.96777L16.3848 6.00586L16.4688 5.58203C15.6098 5.44135 14.9106 4.82908 14.6484 4.01758L6.83887 4.72754ZM5.30664 4.30762C5.00967 4.30782 4.76893 4.54876 4.76855 4.8457C4.76855 5.14297 5.00943 5.38457 5.30664 5.38477C5.60387 5.38459 5.8457 5.14298 5.8457 4.8457C5.84532 4.54875 5.60363 4.30779 5.30664 4.30762Z" fill="#465FFF"/>
</g>
<defs>
<clipPath id="clip0_34906_80171">
<rect width="32" height="32" fill="white"/>
</clipPath>
</defs>
</svg>
